<svg width="80" height="80" viewBox="0 0 80 80" fill="none" xmlns="http://www.w3.org/2000/svg">
<rect width="80" height="80" rx="8" fill="white"/>
<path d="M28.4823 53.4723C26.6717 53.4723 25.0447 53.0525 23.6015 52.2128C22.1844 51.373 21.0692 50.1922 20.2557 48.6702C19.4422 47.122 19.0355 45.3113 19.0355 43.2382C19.0355 41.1652 19.4422 39.3677 20.2557 37.8457C21.0954 36.3237 22.2238 35.1428 23.6408 34.3031C25.0579 33.4371 26.6717 33.0042 28.4823 33.0042C30.9753 33.0042 32.9827 33.6339 34.5047 34.8935C36.0529 36.1269 37.037 37.8325 37.4569 40.0106H33.0877C32.8253 39.0659 32.2873 38.318 31.4738 37.7669C30.6866 37.2159 29.6763 36.9403 28.443 36.9403C27.5508 36.9403 26.6979 37.1765 25.8845 37.6489C25.0972 38.1212 24.4543 38.8297 23.9557 39.7744C23.4834 40.6928 23.2472 41.8475 23.2472 43.2382C23.2472 44.6028 23.4834 45.7574 23.9557 46.7021C24.4543 47.6468 25.0972 48.3684 25.8845 48.867C26.6979 49.3393 27.5508 49.5755 28.443 49.5755C29.7026 49.5755 30.7128 49.3 31.4738 48.7489C32.2348 48.1978 32.7728 47.4369 33.0877 46.4659H37.4569C36.932 48.6177 35.9086 50.3234 34.3866 51.583C32.8646 52.8426 30.8965 53.4723 28.4823 53.4723ZM51.8086 53.4723C49.683 53.4723 47.8199 52.895 46.2192 51.7404C44.6447 50.5858 43.4245 48.9457 42.5585 46.8202C41.6926 44.6684 41.2596 42.1361 41.2596 39.2233C41.2596 36.2843 41.6926 33.752 42.5585 31.6265C43.4245 29.5009 44.6447 27.8609 46.2192 26.7062C47.8199 25.5516 49.683 24.9743 51.8086 24.9743C53.9604 24.9743 55.8235 25.5516 57.398 26.7062C58.9724 27.8609 60.1927 29.5009 61.0586 31.6265C61.9246 33.752 62.3576 36.2843 62.3576 39.2233C62.3576 42.1361 61.9246 44.6684 61.0586 46.8202C60.1927 48.9457 58.9724 50.5858 57.398 51.7404C55.8235 52.895 53.9604 53.4723 51.8086 53.4723ZM45.5107 39.2233C45.5107 40.6928 45.6419 42.0311 45.9043 43.2382C46.1667 44.4453 46.5341 45.495 47.0064 46.3872L53.8948 29.3435C53.2387 29.0286 52.5433 28.8712 51.8086 28.8712C49.9717 28.8712 48.4628 29.8027 47.282 31.6658C46.1011 33.5027 45.5107 36.0219 45.5107 39.2233ZM51.8086 49.6149C53.0419 49.6149 54.1309 49.195 55.0756 48.3553C56.0203 47.5156 56.7551 46.3216 57.2799 44.7734C57.8309 43.1989 58.1065 41.3489 58.1065 39.2233C58.1065 37.7538 57.9753 36.4155 57.7129 35.2084C57.4504 34.0013 57.0831 32.9648 56.6107 32.0988L49.7224 49.1425C50.3784 49.4574 51.0738 49.6149 51.8086 49.6149Z" fill="black"/>
</svg>
